<mxfile host="app.diagrams.net" modified="2024-01-09T08:09:10.483Z" agent="Mozilla/5.0 (Windows NT 10.0; Win64; x64) AppleWebKit/537.36 (KHTML, like Gecko) Chrome/120.0.0.0 Safari/537.36 Edg/120.0.0.0" version="22.1.17" etag="EdOTXqc3kupId7cwkm17" type="github">
  <diagram name="Page-1" id="Lipf4vFQc9v4gN-FkEjg">
    <mxGraphModel>
      <root>
        <mxCell id="0" />
        <mxCell id="1" parent="0" />
      </root>
    </mxGraphModel>
  </diagram>
</mxfile>
